# xmcd
#
# Track frame offsets:
#	150
#	21292
#	40792
#	52712
#	69305
#	92747
#	110592
#	127615
#	139117
#	157795
#	174817
#	199827
#	216637
#	238902
#	253442
#	270285
#	282527
#	306305
#
# Disc length: 4341 seconds
#
# Revision: 0
# Processed by: cddbd v1.5.2PL0 Copyright (c) Steve Scherf et al.
# Submitted via: EasyCDDAExtractor 10.0.3.1
#
DISCID=fe10f312
DTITLE=Various Artist - PROMO CD 5 - 1995
DYEAR=1900
DGENRE=
TTITLE0=CRITTERS BUGGIN' - Shag
TTITLE1=ANDREAS VOLLENWIEDER - Firstpiece
TTITLE2=JANIS JOPLIN - Bye, Bye Baby
TTITLE3=SCHTUM - New Brunswick
TTITLE4=STABBING WESTWARD - Violent Moon Swing
TTITLE5=HEADSWIM - Crawl
TTITLE6=BEATCREAM - Thinking All Day
TTITLE7=NICOLETTE LARSON - Rocking My Baby To Sleep
TTITLE8=DIONNE FARRIS - 11th Hour
TTITLE9=CDB - Hook Me Up
TTITLE10=TEN SHARP - Shop Of Memories
TTITLE11=MANOLIS LIDAKIS - Matia Pallatia
TTITLE12=DAVE EDMUNDS - Sabre Dance
TTITLE13=MIKE WATT - Against The 70's
TTITLE14=DANIELLE BRISEBOIS - Welcome To Love - Now Go Home
TTITLE15=HANK WILLIAMS - Lovesick Blues
TTITLE16=OTTMAR LIEBERT and LUNA NEGRA - Havana Club - LATIN MIX
TTITLE17=JULIO IGLESIAS - Mammy Blue
EXTD=
EXTT0=
EXTT1=
EXTT2=
EXTT3=
EXTT4=
EXTT5=
EXTT6=
EXTT7=
EXTT8=
EXTT9=
EXTT10=
EXTT11=
EXTT12=
EXTT13=
EXTT14=
EXTT15=
EXTT16=
EXTT17=
PLAYORDER=
